<svg xmlns="http://www.w3.org/2000/svg" viewBox="0 0 64 64" role="img" aria-label="Sparkle Shield Bros icon">
  <defs>
    <linearGradient id="gold" x1="14" y1="6" x2="50" y2="58" gradientUnits="userSpaceOnUse">
      <stop stop-color="#f3c568"/>
      <stop offset="1" stop-color="#d79a23"/>
    </linearGradient>
  </defs>
  <circle cx="32" cy="32" r="30" fill="#160c25"/>
  <path fill="url(#gold)" d="M32 8l19 7v16c0 12-7 20-19 25-12-5-19-13-19-25V15l19-7z"/>
  <path fill="#1b2e5a" d="M32 15l13 5v12c0 8-4 13-13 17-9-4-13-9-13-17V20l13-5z"/>
  <path fill="#fff6df" d="M24 28c0-4 3-7 8-7 4 0 7 2 8 5l-5 2c-1-2-2-3-4-3s-3 1-3 2c0 4 13 1 13 10 0 4-4 7-9 7s-9-2-10-6l5-2c1 3 3 4 6 4 2 0 3-1 3-2 0-4-12-1-12-10z"/>
</svg>
